<svg width="15" height="15" viewBox="0 0 15 15" fill="none" xmlns="http://www.w3.org/2000/svg">
<mask id="mask0_546_7664" style="mask-type:alpha" maskUnits="userSpaceOnUse" x="0" y="0" width="15" height="15">
<rect width="15" height="15" fill="#C4C4C4"/>
</mask>
<g mask="url(#mask0_546_7664)">
<path d="M6.32381 6.75742L13.1126 0.307863C13.5444 -0.102619 14.2446 -0.102619 14.6762 0.307863C15.1079 0.717979 15.1079 1.38315 14.6762 1.79323L8.66922 7.50011L14.6761 13.2068C15.1077 13.6171 15.1077 14.2822 14.6761 14.6923C14.2444 15.1026 13.5443 15.1026 13.1124 14.6923L6.32363 8.24263C6.1078 8.03747 6 7.76887 6 7.50014C6 7.23128 6.10801 6.96248 6.32381 6.75742Z" fill="white"/>
<path d="M0.323807 6.75742L7.11259 0.307863C7.54444 -0.102619 8.24461 -0.102619 8.67625 0.307863C9.10792 0.717979 9.10792 1.38315 8.67625 1.79323L2.66922 7.50011L8.67607 13.2068C9.10774 13.6171 9.10774 14.2822 8.67607 14.6923C8.2444 15.1026 7.54426 15.1026 7.11241 14.6923L0.323633 8.24263C0.107796 8.03747 -3.21509e-07 7.76887 -2.98016e-07 7.50014C-2.74511e-07 7.23128 0.108006 6.96248 0.323807 6.75742Z" fill="white"/>
</g>
</svg>
